<svg xmlns="http://www.w3.org/2000/svg" xmlns:xlink="http://www.w3.org/1999/xlink" version="1.1" data-diagram-type="DESCRIPTION" style="width:1171px;height:286px;background:#FFFFFF;" width="1171px" height="286px" viewBox="0 0 1171 286" zoomAndPan="magnify" preserveAspectRatio="none" contentStyleType="text/css"><?plantuml 1.2026.8?><defs/><g font-family="sans-serif" lengthAdjust="spacing"><g class="title" data-source-line="1"><text x="524.25" y="26.044" fill="#000" font-size="14" textLength="115.5" font-weight="700">新版底座组件边界</text></g><!--cluster new-design/--><g class="cluster" data-qualified-name="new-design." id="ent0001" data-source-line="5"><path d="M8.5,46.12 L90.396,46.12 A3.75,3.75 0 0 1 92.896,48.62 L99.896,71.24 L1153.5,71.24 A2.5,2.5 0 0 1 1156,73.74 L1156,268.62 A2.5,2.5 0 0 1 1153.5,271.12 L8.5,271.12 A2.5,2.5 0 0 1 6,268.62 L6,48.62 A2.5,2.5 0 0 1 8.5,46.12" style="stroke:#000;stroke-width:1.5;" fill="none"/><line x1="6" y1="71.24" x2="99.896" y2="71.24" style="stroke:#000;stroke-width:1.5;"/><text x="10" y="64.164" fill="#000" font-size="14" textLength="80.896" font-weight="700">new-design/</text></g><!--entity client--><g class="entity" data-qualified-name="new-design..client" id="ent0002" data-source-line="6"><rect x="22" y="84.12" width="96" height="68.24" fill="#F1F1F1" style="stroke:#181818;stroke-width:0.5;" rx="2.5" ry="2.5"/><rect x="98" y="89.12" width="15" height="10" fill="#F1F1F1" style="stroke:#181818;stroke-width:0.5;"/><rect x="96" y="91.12" width="4" height="2" fill="#F1F1F1" style="stroke:#181818;stroke-width:0.5;"/><rect x="96" y="95.12" width="4" height="2" fill="#F1F1F1" style="stroke:#181818;stroke-width:0.5;"/><text x="37" y="120.164" fill="#000" font-size="14" textLength="56">创作页面</text><text x="37" y="139.284" fill="#000" font-size="14" textLength="55.234">src/client</text></g><!--entity http--><g class="entity" data-qualified-name="new-design..http" id="ent0003" data-source-line="7"><rect x="303" y="84.12" width="128.689" height="68.24" fill="#F1F1F1" style="stroke:#181818;stroke-width:0.5;" rx="2.5" ry="2.5"/><rect x="411.689" y="89.12" width="15" height="10" fill="#F1F1F1" style="stroke:#181818;stroke-width:0.5;"/><rect x="409.689" y="91.12" width="4" height="2" fill="#F1F1F1" style="stroke:#181818;stroke-width:0.5;"/><rect x="409.689" y="95.12" width="4" height="2" fill="#F1F1F1" style="stroke:#181818;stroke-width:0.5;"/><text x="318" y="120.164" fill="#000" font-size="14" textLength="68.441">HTTP 接口</text><text x="318" y="139.284" fill="#000" font-size="14" textLength="88.689">src/server/http</text></g><!--entity business--><g class="entity" data-qualified-name="new-design..business" id="ent0004" data-source-line="8"><rect x="525" y="101.12" width="234.147" height="68.24" fill="#F1F1F1" style="stroke:#181818;stroke-width:0.5;" rx="2.5" ry="2.5"/><rect x="739.147" y="106.12" width="15" height="10" fill="#F1F1F1" style="stroke:#181818;stroke-width:0.5;"/><rect x="737.147" y="108.12" width="4" height="2" fill="#F1F1F1" style="stroke:#181818;stroke-width:0.5;"/><rect x="737.147" y="112.12" width="4" height="2" fill="#F1F1F1" style="stroke:#181818;stroke-width:0.5;"/><text x="540" y="137.164" fill="#000" font-size="14" textLength="98">业务应用与领域</text><text x="540" y="156.284" fill="#000" font-size="14" textLength="194.147">src/server/application + domain</text></g><!--entity ai--><g class="entity" data-qualified-name="new-design..ai" id="ent0005" data-source-line="9"><rect x="843.5" y="84.12" width="116.234" height="68.24" fill="#F1F1F1" style="stroke:#181818;stroke-width:0.5;" rx="2.5" ry="2.5"/><rect x="939.734" y="89.12" width="15" height="10" fill="#F1F1F1" style="stroke:#181818;stroke-width:0.5;"/><rect x="937.734" y="91.12" width="4" height="2" fill="#F1F1F1" style="stroke:#181818;stroke-width:0.5;"/><rect x="937.734" y="95.12" width="4" height="2" fill="#F1F1F1" style="stroke:#181818;stroke-width:0.5;"/><text x="858.5" y="120.164" fill="#000" font-size="14" textLength="45.117">AI 执行</text><text x="858.5" y="139.284" fill="#000" font-size="14" textLength="76.234">src/server/ai</text></g><!--entity workers--><g class="entity" data-qualified-name="new-design..workers" id="ent0006" data-source-line="10"><rect x="271" y="187.12" width="192.886" height="68.24" fill="#F1F1F1" style="stroke:#181818;stroke-width:0.5;" rx="2.5" ry="2.5"/><rect x="443.886" y="192.12" width="15" height="10" fill="#F1F1F1" style="stroke:#181818;stroke-width:0.5;"/><rect x="441.886" y="194.12" width="4" height="2" fill="#F1F1F1" style="stroke:#181818;stroke-width:0.5;"/><rect x="441.886" y="198.12" width="4" height="2" fill="#F1F1F1" style="stroke:#181818;stroke-width:0.5;"/><text x="286" y="223.164" fill="#000" font-size="14" textLength="56">后台任务</text><text x="286" y="242.284" fill="#000" font-size="14" textLength="152.886">src/server/app + aiTasks</text></g><!--entity persistence--><g class="entity" data-qualified-name="new-design..persistence" id="ent0007" data-source-line="11"><rect x="820" y="187.12" width="162.944" height="68.24" fill="#F1F1F1" style="stroke:#181818;stroke-width:0.5;" rx="2.5" ry="2.5"/><rect x="962.944" y="192.12" width="15" height="10" fill="#F1F1F1" style="stroke:#181818;stroke-width:0.5;"/><rect x="960.944" y="194.12" width="4" height="2" fill="#F1F1F1" style="stroke:#181818;stroke-width:0.5;"/><rect x="960.944" y="198.12" width="4" height="2" fill="#F1F1F1" style="stroke:#181818;stroke-width:0.5;"/><text x="835" y="223.164" fill="#000" font-size="14" textLength="70">持久化模块</text><text x="835" y="242.284" fill="#000" font-size="14" textLength="122.944">src/server/database</text></g><!--entity postgres--><g class="entity" data-qualified-name="new-design..postgres" id="ent0008" data-source-line="12"><path d="M1044,197.62 C1044,187.62 1092.131,187.62 1092.131,187.62 C1092.131,187.62 1140.262,187.62 1140.262,197.62 L1140.262,244.86 C1140.262,254.86 1092.131,254.86 1092.131,254.86 C1092.131,254.86 1044,254.86 1044,244.86 L1044,197.62" style="stroke:#181818;stroke-width:0.5;" fill="#F1F1F1"/><path d="M1044,197.62 C1044,207.62 1092.131,207.62 1092.131,207.62 C1092.131,207.62 1140.262,207.62 1140.262,197.62" style="stroke:#181818;stroke-width:0.5;" fill="none"/><text x="1054" y="227.664" fill="#000" font-size="14" textLength="76.262">PostgreSQL</text><text x="1054" y="246.784" fill="#000" font-size="14" textLength="74.724">new_design</text></g><!--link client to http--><g class="link" data-entity-1="ent0002" data-entity-2="ent0003" id="lnk9" data-source-line="15" data-link-type="dependency"><path d="M118.15,118.12 C168.17,118.12 242.5,118.12 298,118.12" style="stroke:#181818;stroke-width:1;" fill="none" id="client-to-http"/><polygon points="303,118.12,294,114.12,298,118.12,294,122.12,303,118.12" fill="#181818" style="stroke:#181818;stroke-width:1;stroke-linejoin:miter;stroke-miterlimit:10;"/><text x="149" y="115.018" fill="#000" font-size="13" textLength="91.057">/api/new-design</text></g><!--link http to business--><g class="link" data-entity-1="ent0003" data-entity-2="ent0004" id="lnk10" data-source-line="16" data-link-type="dependency"><path d="M432.05,122.08 C459.72,123.81 488.08,125.578 519.91,127.568" style="stroke:#181818;stroke-width:1;" fill="none" id="http-to-business"/><polygon points="524.9,127.88,516.167,123.326,519.91,127.568,515.668,131.311,524.9,127.88" fill="#181818" style="stroke:#181818;stroke-width:1;stroke-linejoin:miter;stroke-miterlimit:10;"/></g><!--link business to ai--><g class="link" data-entity-1="ent0004" data-entity-2="ent0005" id="lnk11" data-source-line="17" data-link-type="dependency"><path d="M759.32,127.44 C788.51,125.51 813.571,123.86 838.401,122.22" style="stroke:#181818;stroke-width:1;" fill="none" id="business-to-ai"/><polygon points="843.39,121.89,834.146,118.492,838.401,122.22,834.673,126.475,843.39,121.89" fill="#181818" style="stroke:#181818;stroke-width:1;stroke-linejoin:miter;stroke-miterlimit:10;"/></g><!--link business to persistence--><g class="link" data-entity-1="ent0004" data-entity-2="ent0007" id="lnk12" data-source-line="18" data-link-type="dependency"><path d="M745.14,169.23 C769.99,177.53 791.487,184.717 815.177,192.627" style="stroke:#181818;stroke-width:1;" fill="none" id="business-to-persistence"/><polygon points="819.92,194.21,812.65,187.566,815.177,192.627,810.116,195.154,819.92,194.21" fill="#181818" style="stroke:#181818;stroke-width:1;stroke-linejoin:miter;stroke-miterlimit:10;"/></g><!--link workers to business--><g class="link" data-entity-1="ent0006" data-entity-2="ent0004" id="lnk13" data-source-line="19" data-link-type="dependency"><path d="M464.19,190.92 C486.43,183.9 505.482,177.884 528.212,170.714" style="stroke:#181818;stroke-width:1;" fill="none" id="workers-to-business"/><polygon points="532.98,169.21,523.194,168.103,528.212,170.714,525.6,175.732,532.98,169.21" fill="#181818" style="stroke:#181818;stroke-width:1;stroke-linejoin:miter;stroke-miterlimit:10;"/></g><!--link workers to persistence--><g class="link" data-entity-1="ent0006" data-entity-2="ent0007" id="lnk14" data-source-line="20" data-link-type="dependency"><path d="M464.23,221.12 C565.79,221.12 719.48,221.12 814.89,221.12" style="stroke:#181818;stroke-width:1;" fill="none" id="workers-to-persistence"/><polygon points="819.89,221.12,810.89,217.12,814.89,221.12,810.89,225.12,819.89,221.12" fill="#181818" style="stroke:#181818;stroke-width:1;stroke-linejoin:miter;stroke-miterlimit:10;"/></g><!--link persistence to postgres--><g class="link" data-entity-1="ent0007" data-entity-2="ent0008" id="lnk15" data-source-line="21" data-link-type="dependency"><path d="M983.26,221.12 C1003.95,221.12 1020.52,221.12 1038.87,221.12" style="stroke:#181818;stroke-width:1;" fill="none" id="persistence-to-postgres"/><polygon points="1043.87,221.12,1034.87,217.12,1038.87,221.12,1034.87,225.12,1043.87,221.12" fill="#181818" style="stroke:#181818;stroke-width:1;stroke-linejoin:miter;stroke-miterlimit:10;"/></g><?plantuml-src NP4_Jy906CRt-nHlkXh2xc3Yfea3HaOISxH7kL2kpTqfWt4mKGE6W0DWeXA2ni38eW4Q_JIz5hw5fGNbsDvxd_izxpz9fKCWx4sYHbtDkse-YlpRmFzQ_CoYRXCvf2H1ki2fNPPWKKvCILs6H8Ko3tDS1L76bbkZp8OITWH1oCDc1Ti434Pg6Oi8QhEi0LS8m7Ihdii8as2e-alm_ReSVYxxRmKck9ar7Heh1c01QQW3H_by3iBMXsg_f_y5uPU4PyjIUWcq2dGac3whXw6QTwBEE9Ysbc_tQZ3GOEnv3ZNnQYBO0ykjOieIi-A5e8m8eHiU7aFO62s6JTs49WYcEnC-jbHx4lX-tCDkqRWOfdaiAY91Qowl4BvJB6pU1BCxrUo5uw7gFsaM5fQuY0L9Q2z6gP24cIHss4XWv5mXRKxEJayAB3x5UNgA54abWQuHIfSDcSn1iaBOXxX3clq_7ahIA_rlAviWoSQ3Q-_jVjQJwVHsSllpLfngwov_0G00?></g></svg>